<?xml version="1.0" standalone="no"?>
<!DOCTYPE svg PUBLIC "-//W3C//DTD SVG 20010904//EN"
 "http://www.w3.org/TR/2001/REC-SVG-20010904/DTD/svg10.dtd">
<svg version="1.0" xmlns="http://www.w3.org/2000/svg"
 width="500.000000pt" height="500.000000pt" viewBox="0 0 500.000000 500.000000"
 preserveAspectRatio="xMidYMid meet">
<metadata>
Created by potrace 1.14, written by Peter Selinger 2001-2017
</metadata>
<g transform="translate(0.000000,500.000000) scale(0.100000,-0.100000)"
fill="#000000" stroke="none">
<path d="M360 4090 l0 -480 25 0 25 0 0 455 0 455 2085 0 2085 0 0 -455 0
-455 30 0 30 0 0 480 0 480 -2140 0 -2140 0 0 -480z"/>
<path d="M1740 4220 c0 -103 1 -110 20 -110 17 0 20 7 20 40 l0 40 55 0 55 0
0 -40 c0 -33 3 -40 20 -40 19 0 20 7 20 110 0 103 -1 110 -20 110 -17 0 -20
-7 -20 -50 l0 -50 -55 0 -55 0 0 50 c0 43 -3 50 -20 50 -19 0 -20 -7 -20 -110z"/>
<path d="M2060 4255 c0 -93 16 -130 64 -143 45 -13 80 -5 107 24 20 22 23 35
24 107 0 78 -1 82 -22 85 -22 3 -23 1 -23 -75 0 -86 -8 -103 -51 -103 -39 0
-48 17 -51 100 -3 69 -5 75 -25 78 -22 3 -23 0 -23 -73z"/>
<path d="M2390 4220 c0 -103 1 -110 20 -110 18 0 20 7 20 68 l1 67 30 -57 c16
-32 36 -58 45 -58 8 0 27 26 44 63 l30 62 0 -72 c0 -66 2 -73 20 -73 19 0 20
7 20 110 0 108 0 110 -23 110 -19 0 -30 -13 -57 -71 l-34 -70 -35 70 c-28 57
-40 71 -58 71 -23 0 -23 -2 -23 -110z"/>
<path d="M2791 4253 c-68 -158 -65 -143 -37 -143 16 0 27 7 31 20 5 17 15 20
60 20 45 0 55 -3 60 -20 4 -13 15 -20 31 -20 24 0 24 1 11 33 -74 172 -82 187
-102 187 -16 0 -28 -16 -54 -77z m58 -61 c-17 -2 -33 -1 -35 1 -3 3 3 21 13
42 l18 37 17 -38 17 -39 -30 -3z"/>
<path d="M3070 4220 c0 -103 1 -110 20 -110 18 0 20 7 20 72 l0 72 53 -72 c37
-51 58 -71 75 -72 21 0 22 2 22 110 0 103 -1 110 -20 110 -17 0 -19 -8 -22
-72 l-3 -72 -53 72 c-34 45 -61 72 -73 72 -18 0 -19 -8 -19 -110z"/>
<path d="M2412 3490 c-52 -32 -73 -75 -71 -147 l2 -63 -108 -94 c-88 -77 -112
-93 -126 -85 -34 18 -114 11 -149 -13 -57 -39 -75 -72 -75 -138 0 -66 18 -99
76 -138 28 -20 43 -23 89 -19 30 3 62 6 71 8 9 2 63 -36 127 -90 94 -79 110
-96 102 -112 -6 -10 -10 -42 -10 -71 0 -97 61 -158 158 -158 29 0 61 4 70 9
14 7 41 -10 132 -87 l115 -97 -1 -67 -1 -67 -113 -94 -112 -94 -42 15 c-33 11
-51 12 -90 3 -39 -9 -52 -9 -65 2 -9 8 -56 48 -105 91 l-89 77 2 62 c2 51 -2
69 -21 97 -83 124 -279 75 -295 -73 -7 -63 24 -126 76 -155 42 -24 118 -30
152 -12 17 9 34 -2 126 -83 l106 -94 -2 -66 c-2 -65 -2 -66 41 -110 57 -60
114 -71 185 -36 68 35 88 66 89 147 l1 66 111 93 c96 80 115 92 131 83 34 -18
120 -12 158 11 69 43 93 146 52 219 -38 67 -130 98 -204 70 -25 -9 -35 -3
-139 84 l-112 95 4 58 c3 49 0 64 -20 92 -40 59 -72 76 -144 77 l-64 1 -118
99 -117 99 1 69 1 68 107 95 c104 92 108 94 138 84 41 -15 82 -14 121 2 32 13
33 13 142 -72 l110 -86 -3 -55 c-2 -45 2 -63 20 -90 32 -48 79 -72 138 -72 93
0 151 55 158 149 3 48 0 64 -20 92 -12 19 -35 43 -49 54 -36 26 -105 33 -149
15 l-35 -15 -108 83 -109 84 -1 62 c-2 71 -27 117 -77 143 -42 22 -128 19
-168 -5z"/>
<path d="M1353 3317 c0 -28 4 -37 14 -33 8 3 30 -1 50 -9 35 -15 36 -16 17
-29 -10 -7 -29 -16 -40 -20 -24 -7 -41 -57 -48 -146 l-5 -55 14 34 c8 18 13
36 11 40 -2 3 2 11 8 17 10 9 22 6 50 -11 42 -25 35 -38 -25 -49 -27 -5 -38
-13 -42 -29 -6 -20 -5 -20 7 -4 9 11 27 17 57 17 24 1 55 7 68 14 17 10 33 11
51 5 59 -21 108 15 58 42 l-23 13 25 6 c30 7 39 38 13 46 -10 3 -30 12 -45 20
-28 15 -103 10 -93 -6 2 -4 -15 -4 -38 1 -23 4 -45 8 -49 9 -5 0 -8 4 -8 9 0
5 19 14 43 19 23 5 50 13 60 17 12 5 17 2 17 -9 0 -9 5 -16 10 -16 6 0 10 6
10 14 0 17 37 27 68 19 17 -4 22 -1 22 15 0 17 -9 20 -62 26 -35 3 -79 8 -98
10 -20 1 -46 8 -58 15 -12 6 -22 8 -23 4 -1 -4 -5 3 -9 17 -7 22 -8 20 -7 -13z
m66 -156 c9 -6 3 -10 -20 -14 -38 -5 -44 -3 -34 12 7 13 35 14 54 2z m86 -31
c15 -6 9 -9 -25 -9 -34 0 -40 3 -25 9 11 5 22 9 25 9 3 0 14 -4 25 -9z"/>
<path d="M725 3330 c-3 -5 -26 -10 -51 -10 -25 0 -57 -6 -73 -14 -17 -9 -32
-11 -42 -5 -8 5 -27 9 -42 9 -38 0 -47 -27 -16 -51 l24 -19 -27 0 c-21 0 -28
-5 -28 -20 0 -11 8 -23 18 -26 9 -3 29 -12 43 -20 27 -14 89 -10 89 6 0 4 19
4 43 -1 23 -4 45 -8 50 -9 4 0 7 -4 7 -8 0 -5 -21 -14 -47 -20 -27 -6 -57 -14
-67 -18 -16 -6 -18 -4 -13 9 3 9 2 17 -3 17 -6 0 -10 -7 -10 -15 0 -14 -7 -16
-70 -19 -30 -1 -35 -31 -5 -32 66 -3 165 -18 194 -30 43 -18 41 -19 41 14 0
18 -3 23 -9 14 -7 -11 -15 -11 -45 2 -20 8 -36 18 -36 21 0 12 69 35 87 28 15
-5 16 -3 6 8 -7 7 -13 22 -12 34 0 20 0 20 9 0 7 -15 9 -9 7 25 -2 35 -6 46
-21 48 -12 3 -16 0 -11 -8 4 -6 -11 -2 -34 9 -42 22 -48 51 -11 51 10 0 31 5
47 12 15 6 31 11 36 10 4 -1 7 3 7 8 0 6 -6 10 -14 10 -8 0 -18 -4 -21 -10z
m-82 -100 c-14 -6 -32 -6 -45 0 -19 7 -15 9 22 9 37 0 41 -2 23 -9z m97 -9 c0
-24 -29 -35 -61 -22 l-24 10 27 0 c15 1 33 8 40 16 17 19 18 18 18 -4z"/>
<path d="M740 3269 c0 -5 5 -7 10 -4 6 3 10 8 10 11 0 2 -4 4 -10 4 -5 0 -10
-5 -10 -11z"/>
<path d="M3482 2648 l-2 -628 581 0 c384 0 578 3 574 10 -4 6 -207 10 -576 10
l-569 0 -3 618 -2 617 -3 -627z"/>
<path d="M1346 3238 c-3 -13 -5 -32 -5 -43 1 -11 5 -2 10 19 10 42 6 62 -5 24z"/>
<path d="M3520 3243 c1 -114 23 -569 35 -708 26 -314 58 -424 132 -461 36 -18
67 -19 493 -19 448 0 455 0 455 20 0 20 -8 20 -460 25 -253 3 -467 9 -476 13
-67 34 -106 285 -124 792 -11 316 -15 355 -36 355 -11 0 -19 -7 -19 -17z"/>
<path d="M730 2990 c-8 -5 -30 -10 -47 -10 -18 0 -50 -7 -72 -16 -30 -12 -44
-13 -60 -5 -29 16 -71 4 -71 -20 0 -10 7 -19 15 -19 22 0 18 -17 -5 -23 -26
-7 -27 -47 -2 -47 10 0 27 -7 38 -15 22 -17 75 -20 91 -4 12 12 103 2 103 -12
0 -5 -12 -11 -27 -14 -16 -4 -45 -13 -67 -20 -36 -14 -38 -13 -33 5 3 11 1 20
-4 20 -5 0 -9 -6 -9 -14 0 -17 -35 -30 -72 -27 -29 2 -37 -12 -16 -25 7 -4 21
-8 32 -9 81 -6 216 -29 206 -35 -10 -6 -9 -9 0 -12 20 -6 2 -45 -23 -52 -12
-3 -34 -6 -49 -6 -15 0 -38 -5 -52 -11 -16 -8 -34 -8 -53 -2 -40 13 -73 5 -73
-16 0 -10 10 -26 23 -34 l22 -16 -27 0 c-46 -1 -35 -33 20 -58 46 -20 102 -22
102 -2 0 5 11 7 25 4 14 -3 36 -7 50 -10 38 -8 30 -20 -22 -32 -27 -5 -57 -14
-67 -18 -16 -7 -18 -5 -13 8 3 9 2 19 -3 22 -6 4 -10 -3 -10 -14 0 -15 -7 -21
-22 -22 -13 -1 -32 -2 -43 -3 -37 -2 -35 -35 3 -34 49 1 197 -23 200 -33 8
-20 22 -7 22 19 0 18 -3 23 -8 14 -7 -10 -18 -9 -52 6 l-43 18 37 18 c21 10
44 15 51 12 10 -4 13 4 9 32 -3 32 -2 33 5 12 8 -21 10 -17 9 25 0 28 4 61 10
75 l10 25 16 -37 c20 -48 20 -58 -1 -59 -41 -1 23 -18 67 -17 l45 1 -45 7
c-29 5 -36 8 -18 8 18 1 26 6 22 15 -2 7 -1 24 4 37 8 23 9 22 16 -13 4 -22
13 -37 21 -37 8 0 12 6 9 14 -3 8 3 31 13 51 22 41 36 35 46 -22 5 -25 2 -35
-11 -42 -17 -9 -21 -10 -44 -12 -21 -2 34 -17 65 -18 15 -1 27 3 27 8 0 5 -9
7 -20 4 -11 -3 -20 0 -20 6 0 6 10 11 21 11 16 0 19 3 11 13 -13 16 -24 107
-23 179 2 68 -13 82 -45 45 l-23 -27 -3 28 c-5 41 -26 33 -51 -21 -22 -45 -26
-107 -6 -107 9 0 0 -67 -12 -90 -7 -13 -8 -13 -12 0 -2 8 -11 39 -20 68 -14
50 -14 52 3 52 17 0 16 3 -5 24 -20 20 -23 31 -18 56 5 28 3 31 -13 28 -13 -3
-18 -11 -16 -28 1 -18 -1 -21 -7 -11 -5 7 -10 9 -12 4 -2 -5 -24 -1 -49 8
l-45 17 45 21 c28 13 47 16 51 10 9 -15 19 29 17 76 -1 39 -1 39 -8 -10 -5
-34 -7 -40 -9 -20 -1 20 -4 26 -9 17 -5 -7 -16 -10 -25 -6 -25 9 -20 24 8 24
19 0 25 5 25 21 0 16 -3 19 -13 11 -9 -8 -22 -5 -46 10 -31 20 -32 22 -15 35
10 7 28 13 40 13 13 0 29 7 37 15 8 8 18 11 22 7 5 -4 5 -1 1 6 -9 14 -7 14
-26 2z m-86 -102 c-3 -4 -18 -8 -35 -8 -16 0 -29 4 -29 8 0 4 15 8 34 8 19 0
32 -4 30 -8z m255 -255 c-1 -37 -3 -42 -8 -23 -7 24 -3 70 5 70 2 0 4 -21 3
-47z m-175 -22 c3 -5 3 -23 0 -40 l-6 -30 -39 22 c-53 30 -46 42 33 56 4 0 9
-3 12 -8z m-56 -66 c-8 -8 -77 -9 -85 -2 -3 4 15 7 42 7 27 0 46 -2 43 -5z
m52 -30 c0 -8 -7 -15 -15 -15 -13 0 -14 3 -3 15 16 18 18 18 18 0z"/>
<path d="M1351 2984 c0 -11 3 -14 6 -6 3 7 2 16 -1 19 -3 4 -6 -2 -5 -13z"/>
<path d="M735 2950 c-4 -6 -3 -16 3 -22 13 -13 23 4 13 21 -7 10 -10 10 -16 1z"/>
<path d="M1350 2944 c0 -12 3 -14 13 -6 9 8 24 5 52 -8 l40 -18 -41 -18 c-36
-16 -43 -24 -52 -64 -14 -56 -26 -157 -18 -149 3 3 7 18 8 32 1 15 6 27 11 27
5 0 6 7 3 16 -3 8 -2 13 3 9 5 -3 11 0 13 6 3 8 16 5 42 -8 43 -22 37 -35 -23
-50 -19 -5 -36 -14 -38 -20 -3 -7 18 -6 64 4 63 14 86 15 152 12 41 -2 50 19
18 47 l-28 24 30 0 c45 0 39 24 -12 49 -47 23 -103 28 -109 10 -3 -8 -17 -8
-48 -2 -49 9 -67 33 -26 33 15 0 42 7 61 14 34 14 35 14 35 -6 l0 -22 20 22
c22 23 30 25 68 22 18 -1 23 3 20 16 -2 12 -13 19 -33 20 -17 1 -65 7 -108 13
-104 15 -117 14 -117 -5z m73 -125 c18 -1 -25 -17 -47 -18 -15 -1 -16 1 -6 14
7 9 20 13 27 10 8 -3 20 -5 26 -6z m93 -36 c-7 -7 -77 -5 -85 3 -2 2 17 4 44
4 27 0 45 -3 41 -7z"/>
<path d="M1346 2888 c-3 -13 -5 -32 -5 -43 1 -11 5 -2 10 19 10 42 6 62 -5 24z"/>
<path d="M3403 2780 c1 -61 -1 -110 -5 -110 -5 0 -8 -7 -8 -15 0 -10 10 -15
26 -15 22 0 24 3 15 14 -8 9 -9 16 -2 21 18 11 17 155 -1 167 -10 6 -10 8 0 8
6 0 12 9 12 20 0 13 -7 20 -20 20 -18 0 -19 -6 -17 -110z"/>
<path d="M1215 2782 c-6 -4 -19 -25 -29 -48 -15 -34 -16 -48 -7 -81 6 -22 8
-61 5 -87 -6 -40 -4 -46 11 -46 13 0 15 3 6 13 -8 10 -7 19 4 33 14 18 14 17
15 -13 0 -26 4 -33 20 -33 11 0 20 5 20 10 0 6 -4 10 -10 10 -5 0 -2 16 7 35
19 40 34 41 48 1 10 -29 -2 -60 -24 -62 -32 -4 -34 -6 -16 -14 11 -5 35 -9 53
-9 24 -1 32 3 32 17 0 9 3 28 5 42 l6 25 -12 -25 c-12 -24 -13 -23 -19 25 -3
28 -12 60 -19 73 -9 17 -10 31 -2 53 11 31 0 79 -18 79 -6 0 -16 -10 -22 -22
l-12 -23 -10 28 c-9 28 -15 32 -32 19z m32 -149 c1 -29 -1 -33 -9 -20 -7 14
-3 57 6 57 1 0 3 -17 3 -37z m85 -125 c-12 -12 -35 -1 -27 12 3 5 13 6 21 3
10 -4 12 -9 6 -15z"/>
<path d="M1082 2694 c-7 -42 -10 -80 -7 -84 3 -5 -1 -24 -8 -42 -15 -37 -12
-58 9 -58 7 0 11 6 8 13 -2 7 2 30 9 52 l14 39 15 -24 c9 -14 19 -35 23 -47 5
-19 2 -23 -17 -24 -23 -1 -23 -1 2 -9 14 -4 43 -8 65 -8 l40 1 -45 7 c-25 4
-39 8 -31 8 8 1 11 8 6 20 -4 9 -11 31 -15 47 -5 17 -12 41 -16 54 -6 20 -4
23 9 18 10 -4 17 -2 17 3 0 6 -4 10 -10 10 -14 0 -42 58 -30 65 12 7 1 35 -14
35 -8 0 -17 -30 -24 -76z"/>
<path d="M1351 2644 c0 -11 3 -14 6 -6 3 7 2 16 -1 19 -3 4 -6 -2 -5 -13z"/>
<path d="M1361 2617 c-14 -14 -15 -30 -1 -22 11 7 90 -15 90 -25 0 -5 -17 -15
-39 -23 -32 -13 -40 -22 -49 -59 -7 -24 -14 -68 -16 -98 l-5 -55 14 34 c9 19
13 36 11 39 -3 2 1 10 7 17 10 10 19 9 50 -7 32 -16 36 -22 27 -34 -7 -8 -24
-14 -39 -14 -39 0 -51 -12 -56 -56 -5 -41 -1 -37 9 9 6 25 10 27 52 27 25 0
58 7 74 15 21 11 36 12 57 5 58 -20 101 14 51 41 l-23 13 25 6 c43 10 36 36
-17 60 -41 18 -54 20 -91 10 -45 -11 -112 -5 -112 11 0 5 12 11 28 15 15 3 40
10 56 15 37 12 36 12 36 -6 0 -8 5 -15 10 -15 6 0 10 6 10 13 0 13 46 38 55
29 14 -14 35 -9 35 8 0 15 -11 19 -57 24 -32 3 -74 8 -93 10 -19 2 -47 8 -61
14 -19 8 -30 7 -38 -1z m39 -157 c-42 -7 -47 -5 -31 14 10 12 17 13 39 3 l26
-12 -34 -5z m105 -20 c4 -6 -9 -10 -32 -10 -28 0 -34 3 -23 10 20 13 47 13 55
0z"/>
<path d="M3399 2622 c-1 -4 0 -11 1 -17 7 -32 3 -156 -5 -159 -13 -4 -5 -12
20 -20 17 -5 20 -1 22 26 2 18 -3 36 -10 40 -9 6 -9 8 1 8 8 0 12 19 12 59 0
50 -3 59 -20 64 -11 3 -21 2 -21 -1z"/>
<path d="M1028 2513 c7 -3 16 -2 19 1 4 3 -2 6 -13 5 -11 0 -14 -3 -6 -6z"/>
<path d="M730 2300 c-8 -5 -32 -10 -53 -10 -21 0 -52 -7 -69 -16 -24 -12 -36
-14 -55 -5 -13 6 -35 8 -49 5 -27 -7 -32 -31 -9 -40 21 -8 19 -21 -5 -27 -34
-9 -22 -34 26 -57 41 -20 50 -21 86 -11 39 12 118 7 118 -8 0 -3 -30 -16 -66
-27 -62 -19 -65 -19 -61 -2 3 10 1 18 -4 18 -5 0 -9 -6 -9 -12 0 -21 -51 -40
-67 -26 -10 8 -17 8 -25 0 -18 -18 4 -34 49 -38 65 -6 126 -13 166 -20 31 -5
37 -4 37 10 0 10 -5 14 -10 11 -13 -8 -80 13 -80 25 0 13 74 39 81 28 10 -16
16 4 17 62 0 30 -2 46 -5 36 -9 -34 -26 -44 -53 -33 -25 11 -25 11 8 15 24 2
32 8 32 23 0 10 -5 19 -11 19 -5 0 -7 -5 -4 -11 4 -6 -12 -1 -35 11 -34 17
-39 24 -30 36 7 8 25 14 41 14 15 0 34 7 42 15 8 8 18 11 22 7 5 -4 5 -1 1 6
-9 14 -7 14 -26 2z m-85 -100 c-27 -12 -65 -12 -65 -1 0 5 19 9 43 9 31 0 37
-2 22 -8z m92 -72 c-3 -7 -5 -2 -5 12 0 14 2 19 5 13 2 -7 2 -19 0 -25z"/>
<path d="M1350 2261 c0 -5 10 -9 23 -9 32 0 79 -20 72 -31 -3 -5 -20 -14 -38
-20 -27 -9 -35 -19 -45 -56 -15 -56 -15 -95 -1 -95 6 0 9 6 6 14 -9 23 20 27
58 9 42 -20 33 -38 -25 -48 -23 -4 -41 -13 -44 -23 -3 -9 -4 -5 -2 10 2 15 -1
25 -5 22 -10 -6 -12 -38 -3 -46 3 -4 17 0 32 8 15 8 41 14 59 14 18 0 43 5 57
11 17 8 33 8 53 2 31 -11 73 -1 73 18 0 6 -10 19 -22 30 l-23 18 28 1 c41 0
33 25 -16 49 -46 22 -123 29 -112 10 6 -9 -44 -6 -82 6 -20 7 -15 25 6 25 10
0 37 6 59 14 39 14 41 14 45 -7 l4 -22 8 22 c8 24 38 35 72 27 19 -5 23 -2 23
16 0 16 -5 21 -17 18 -10 -3 -56 1 -103 8 -102 16 -140 17 -140 5z m65 -131
c13 -6 15 -9 5 -9 -8 -1 -26 -4 -40 -8 -22 -6 -24 -5 -11 10 15 19 17 19 46 7z
m105 -36 c0 -2 -21 -4 -47 -3 -37 1 -42 3 -23 8 24 7 70 3 70 -5z"/>
<path d="M740 2239 c0 -5 5 -7 10 -4 6 3 10 8 10 11 0 2 -4 4 -10 4 -5 0 -10
-5 -10 -11z"/>
<path d="M1351 2214 c0 -11 3 -14 6 -6 3 7 2 16 -1 19 -3 4 -6 -2 -5 -13z"/>
<path d="M1342 2165 c0 -16 2 -22 5 -12 2 9 2 23 0 30 -3 6 -5 -1 -5 -18z"/>
<path d="M3887 1983 c-4 -3 -7 -16 -7 -28 0 -21 4 -22 78 -21 70 2 77 4 80 23
3 19 -1 20 -58 16 -36 -3 -66 0 -74 6 -7 6 -16 8 -19 4z"/>
<path d="M4054 1976 c-14 -36 0 -41 112 -40 93 1 109 3 112 17 3 14 -7 17 -60
18 -81 1 -108 3 -136 13 -16 5 -24 3 -28 -8z"/>
<path d="M362 1078 l3 -503 2135 0 2135 0 3 503 2 502 -30 0 -30 0 0 -475 0
-475 -2085 0 -2085 0 0 475 0 475 -25 0 -25 0 2 -502z"/>
<path d="M893 1150 c-62 -25 -47 -92 27 -119 25 -9 45 -23 45 -31 0 -21 -51
-25 -80 -6 -23 15 -25 15 -35 -4 -8 -16 -6 -22 14 -35 28 -19 94 -22 123 -6
25 13 37 55 24 80 -6 10 -25 24 -43 30 -48 18 -61 26 -65 38 -6 17 31 25 62
13 30 -11 45 -6 45 16 0 28 -71 42 -117 24z"/>
<path d="M1183 1144 c-40 -20 -67 -74 -59 -118 12 -62 84 -103 149 -85 91 25
108 142 28 196 -40 27 -73 29 -118 7z m101 -45 c51 -40 24 -119 -41 -119 -47
0 -73 24 -73 66 0 35 37 74 70 74 10 0 29 -9 44 -21z"/>
<path d="M1513 1141 c-40 -25 -53 -49 -53 -99 0 -74 68 -122 144 -101 45 12
61 32 41 49 -12 10 -19 10 -27 2 -19 -19 -76 -14 -98 8 -27 27 -25 66 5 95 28
29 45 31 86 10 27 -14 30 -14 36 0 16 44 -80 70 -134 36z"/>
<path d="M1777 1153 c-4 -3 -7 -53 -7 -110 l0 -103 25 0 25 0 0 110 c0 100 -2
110 -18 110 -10 0 -22 -3 -25 -7z"/>
<path d="M1982 1067 c-59 -134 -57 -127 -33 -127 11 0 25 9 31 20 9 16 21 20
65 20 45 0 55 -3 60 -20 4 -13 15 -20 30 -20 24 0 24 1 -23 108 -64 144 -74
145 -130 19z m65 -45 c-16 -2 -31 -1 -34 1 -2 3 3 22 12 43 l16 39 18 -40 18
-40 -30 -3z"/>
<path d="M2270 1050 l0 -110 65 0 c58 0 65 2 65 20 0 17 -7 20 -45 20 l-45 0
0 90 c0 83 -1 90 -20 90 -19 0 -20 -7 -20 -110z"/>
<path d="M2520 1050 c0 -103 1 -110 20 -110 19 0 20 7 20 110 0 103 -1 110
-20 110 -19 0 -20 -7 -20 -110z"/>
<path d="M2670 1140 c0 -16 7 -20 35 -20 l35 0 0 -90 c0 -83 1 -90 20 -90 19
0 20 7 20 90 l0 90 35 0 c28 0 35 4 35 20 0 19 -7 20 -90 20 -83 0 -90 -1 -90
-20z"/>
<path d="M2969 1085 c26 -47 41 -87 41 -110 0 -28 4 -35 20 -35 16 0 20 7 20
31 0 18 17 63 40 104 22 40 40 75 40 79 0 3 -9 6 -19 6 -13 0 -30 -18 -49 -51
l-29 -51 -31 51 c-22 35 -38 51 -53 51 -19 0 -18 -5 20 -75z"/>
<path d="M3410 1050 l0 -110 65 0 c58 0 65 2 65 20 0 17 -7 20 -45 20 l-45 0
0 90 c0 83 -1 90 -20 90 -19 0 -20 -7 -20 -110z"/>
<path d="M3727 1153 c-3 -5 -25 -54 -50 -110 -46 -102 -46 -103 -22 -103 15 0
26 7 30 20 5 17 15 20 62 20 46 0 56 -3 60 -20 4 -13 14 -20 30 -20 29 0 31
-9 -29 127 -30 68 -46 93 -59 93 -10 0 -20 -3 -22 -7z m38 -89 c19 -47 20 -44
-19 -44 l-34 0 15 40 c9 22 18 40 19 40 2 0 11 -16 19 -36z"/>
<path d="M3970 1050 l0 -110 70 0 c57 0 74 4 90 20 24 24 25 49 6 76 -10 13
-11 23 -4 31 5 6 8 24 6 40 -4 36 -38 53 -110 53 l-58 0 0 -110z m117 59 c21
-21 3 -39 -38 -39 -35 0 -39 3 -39 25 0 22 4 25 33 25 18 0 38 -5 44 -11z m11
-106 c3 -21 -1 -23 -42 -23 -43 0 -46 2 -46 26 0 23 3 25 43 22 35 -2 43 -7
45 -25z"/>
</g>
</svg>
